<?xml version="1.0" standalone="no"?>
<!DOCTYPE svg PUBLIC "-//W3C//DTD SVG 20010904//EN"
 "http://www.w3.org/TR/2001/REC-SVG-20010904/DTD/svg10.dtd">
<svg version="1.0" xmlns="http://www.w3.org/2000/svg"
 width="512.000000pt" height="512.000000pt" viewBox="0 0 512.000000 512.000000"
 preserveAspectRatio="xMidYMid meet">
<metadata>
Created by potrace 1.14, written by Peter Selinger 2001-2017
</metadata>
<g transform="translate(0.000000,512.000000) scale(0.100000,-0.100000)"
fill="#000000" stroke="none">
<path d="M2384 5110 c-719 -48 -1378 -398 -1836 -975 -217 -274 -405 -669
-482 -1015 -80 -360 -80 -760 0 -1120 126 -564 442 -1068 899 -1435 289 -232
677 -419 1035 -499 360 -80 760 -80 1120 0 564 126 1068 442 1435 899 232 289
419 677 499 1035 80 360 80 760 0 1120 -126 564 -442 1068 -899 1435 -289 232
-677 419 -1035 499 -227 50 -505 71 -736 56z m407 -395 c81 -8 167 -19 190
-24 174 -39 279 -66 279 -73 0 -4 9 -8 20 -8 11 0 28 -4 38 -9 9 -5 37 -17 62
-27 78 -30 154 -66 182 -85 14 -11 31 -19 37 -19 7 0 35 -16 64 -35 28 -19 57
-35 64 -35 7 0 13 -4 13 -8 0 -4 20 -21 44 -36 24 -15 52 -35 62 -44 11 -9 31
-23 46 -31 15 -8 30 -22 34 -33 3 -10 12 -18 21 -18 9 0 31 -15 49 -32 18 -18
64 -64 103 -102 39 -38 71 -70 71 -72 0 -1 12 -15 28 -31 15 -15 39 -44 54
-63 68 -88 133 -178 148 -205 10 -16 29 -50 43 -75 26 -45 86 -165 146 -292
17 -36 31 -74 31 -83 0 -9 4 -24 10 -34 9 -18 22 -73 59 -246 56 -262 63 -505
22 -755 -38 -230 -74 -368 -126 -485 -8 -16 -25 -56 -39 -87 -15 -31 -26 -62
-26 -67 0 -6 -4 -11 -8 -11 -4 0 -13 -15 -20 -32 -6 -18 -26 -56 -44 -84 -18
-27 -41 -66 -51 -86 -11 -20 -57 -85 -104 -144 -47 -60 -87 -115 -90 -121 -3
-7 -10 -13 -17 -13 -6 0 -22 -16 -35 -35 -13 -19 -30 -35 -37 -35 -8 0 -14 -4
-14 -10 0 -24 -318 -289 -347 -290 -7 0 -13 -4 -13 -9 0 -5 -9 -13 -21 -16
-11 -4 -40 -19 -62 -35 -48 -32 -233 -121 -292 -141 -22 -7 -44 -16 -50 -20
-11 -7 -122 -41 -205 -63 -51 -13 -107 -24 -235 -47 -108 -19 -424 -21 -555
-5 -178 23 -371 61 -413 82 -16 8 -40 14 -53 14 -13 0 -24 4 -24 9 0 5 -12 12
-27 16 -97 24 -373 170 -496 261 -36 27 -78 58 -93 69 -16 11 -38 30 -50 43
-12 12 -25 22 -29 22 -15 0 -215 212 -215 227 0 10 -6 14 -19 10 -14 -3 -18
-1 -14 10 3 8 1 18 -4 22 -15 9 -83 100 -83 110 0 5 -7 11 -15 15 -8 3 -15 12
-15 21 0 8 -4 15 -10 15 -5 0 -10 6 -10 13 0 8 -9 22 -20 32 -11 10 -20 24
-20 32 0 7 -4 13 -10 13 -5 0 -10 6 -10 14 0 8 -12 29 -27 47 -16 18 -26 35
-24 37 4 3 -48 119 -90 204 -15 30 -71 191 -81 233 -52 219 -70 367 -70 580 1
217 19 379 66 575 22 92 100 299 137 364 40 70 49 88 49 102 0 8 6 17 14 20 8
3 17 17 21 31 9 39 134 217 228 327 59 68 185 194 238 238 85 70 262 198 275
198 7 0 14 3 16 8 2 4 28 20 58 35 30 16 75 39 100 52 98 51 160 77 265 111
61 20 121 40 135 45 40 14 195 40 320 54 159 17 300 17 471 0z"/>
<path d="M2325 4660 c-38 -4 -90 -12 -115 -18 -25 -6 -83 -18 -130 -28 -47 -9
-89 -21 -95 -25 -5 -3 -26 -10 -45 -13 -33 -7 -77 -22 -147 -52 -17 -8 -34
-14 -37 -14 -8 0 -159 -73 -166 -80 -3 -3 -27 -16 -55 -29 -27 -13 -63 -34
-80 -46 -80 -58 -136 -95 -145 -95 -5 0 -10 -4 -10 -8 0 -4 -18 -19 -40 -32
-22 -14 -40 -31 -40 -37 0 -7 -4 -13 -9 -13 -25 0 -261 -238 -261 -262 0 -5
-7 -8 -15 -8 -8 0 -15 -6 -15 -12 0 -7 -14 -27 -30 -45 -17 -18 -30 -37 -30
-43 0 -6 -7 -13 -15 -16 -8 -4 -15 -10 -15 -15 0 -5 -15 -31 -33 -57 -18 -26
-40 -60 -49 -77 -8 -16 -36 -70 -62 -120 -59 -112 -122 -266 -132 -321 -1 -6
-9 -27 -17 -45 -8 -19 -18 -47 -20 -64 -8 -46 -37 -186 -47 -225 -28 -110 -20
-496 16 -675 8 -44 21 -108 27 -142 6 -35 14 -63 19 -63 4 0 10 -17 14 -37 4
-21 10 -42 14 -48 4 -5 17 -43 30 -83 13 -39 27 -72 31 -72 5 0 11 -16 15 -35
3 -19 12 -39 19 -45 8 -6 17 -25 20 -41 4 -16 10 -29 14 -29 3 0 12 -12 18
-27 16 -37 59 -111 89 -150 13 -17 24 -36 24 -40 0 -10 21 -38 67 -91 18 -20
33 -40 33 -44 0 -13 159 -178 171 -178 5 0 9 -6 9 -12 0 -7 15 -24 32 -38 18
-14 40 -33 50 -43 10 -9 22 -17 28 -17 5 0 10 -6 10 -14 0 -8 9 -18 20 -21 11
-3 20 -10 20 -15 0 -5 8 -11 18 -14 9 -3 28 -16 42 -28 38 -34 88 -68 100 -68
5 0 10 -4 10 -10 0 -5 4 -10 10 -10 5 0 26 -12 47 -26 47 -32 248 -130 286
-139 15 -4 30 -11 33 -16 3 -5 13 -9 22 -9 9 0 30 -7 46 -15 33 -17 203 -63
341 -91 126 -26 572 -27 685 -1 41 9 86 18 100 20 24 3 52 11 166 43 28 8 58
14 66 14 9 0 21 7 28 15 7 8 22 15 34 15 11 0 30 7 40 15 11 8 25 15 32 15 35
0 261 123 396 215 118 81 123 85 271 230 146 143 223 235 322 387 38 59 155
287 155 304 0 8 9 31 20 51 11 21 20 43 20 50 0 7 4 13 9 13 5 0 11 23 15 51
4 28 11 58 16 67 12 24 36 122 57 232 14 76 18 146 18 350 0 311 -11 385 -92
645 -13 44 -31 94 -38 110 -71 160 -85 194 -85 204 0 6 -4 11 -9 11 -5 0 -15
16 -22 35 -7 19 -16 35 -20 35 -4 0 -11 10 -15 23 -4 12 -16 34 -28 48 -11 15
-52 72 -90 127 -38 56 -75 103 -82 106 -8 3 -14 11 -14 17 0 13 -232 244 -270
269 -12 8 -34 26 -49 40 -14 14 -44 37 -66 50 -22 13 -42 27 -45 30 -5 6 -167
102 -200 119 -8 4 -33 17 -55 28 -22 12 -76 35 -120 53 -44 17 -95 38 -113 46
-18 8 -40 14 -48 14 -9 0 -30 6 -47 14 -60 27 -223 60 -367 76 -99 10 -363 10
-465 0z m323 -58 c2 -6 10 -12 17 -12 15 0 25 -31 25 -78 0 -22 -8 -41 -26
-59 l-27 -27 19 -34 c10 -19 34 -47 53 -63 34 -28 34 -29 16 -43 -48 -35 -137
18 -163 96 -10 32 -10 31 -11 -22 -1 -62 -13 -80 -50 -80 -56 0 -58 14 -36
258 l8 84 85 -4 c57 -2 87 -7 90 -16z m-358 -27 c0 -18 -16 -28 -65 -40 -39
-10 -40 -11 -37 -50 2 -22 5 -41 7 -43 2 -2 21 2 44 9 32 10 43 9 56 -1 21
-17 4 -36 -40 -44 -43 -8 -48 -16 -39 -62 l7 -37 51 5 c61 6 76 2 76 -22 0
-15 -11 -19 -62 -25 -35 -4 -68 -12 -75 -17 -6 -5 -24 -8 -40 -6 -31 3 -33 9
-63 178 -10 58 -21 112 -24 121 -8 18 48 39 124 46 25 3 47 6 48 8 8 8 32 -8
32 -20z m-373 -110 c26 -18 36 -56 23 -89 -8 -22 -7 -26 8 -26 59 -1 90 -112
44 -158 -12 -12 -26 -22 -31 -22 -5 0 -22 -7 -37 -15 -16 -8 -38 -15 -49 -15
-12 0 -26 -5 -33 -12 -14 -14 -42 6 -42 29 0 8 -6 27 -14 41 -15 29 -37 80
-42 97 -2 6 -12 35 -22 65 -21 60 -20 75 6 84 105 40 155 45 189 21z m1461
-16 c2 -5 9 -9 17 -9 23 0 35 -23 21 -43 -17 -23 -41 -22 -75 4 -19 14 -36 19
-50 14 -30 -9 -26 -21 17 -64 73 -74 81 -120 31 -170 -25 -26 -39 -31 -76 -31
-46 0 -123 26 -123 42 0 4 -7 8 -15 8 -22 0 -18 33 6 53 17 15 23 16 37 5 9
-7 21 -19 25 -25 4 -7 15 -13 22 -13 8 0 15 -4 15 -10 0 -17 35 -11 47 9 11
17 6 26 -34 68 -42 43 -47 53 -47 94 -1 56 22 86 68 91 39 4 110 -10 114 -23z
m280 -141 c18 -15 15 -38 -10 -62 -13 -11 -28 -33 -35 -47 -10 -23 -8 -27 18
-43 15 -9 36 -24 45 -33 15 -16 17 -16 30 3 8 10 21 27 29 37 8 9 15 21 15 26
0 14 42 21 62 10 21 -11 24 -52 5 -71 -7 -7 -16 -21 -20 -30 -3 -10 -11 -18
-17 -18 -5 0 -10 -6 -10 -12 -1 -7 -14 -29 -30 -48 -17 -19 -30 -40 -30 -47 0
-7 -4 -13 -8 -13 -5 0 -14 -11 -20 -25 -14 -30 -45 -33 -73 -6 l-21 19 28 49
c15 26 32 51 37 54 13 9 -1 29 -19 29 -8 0 -14 4 -14 8 0 4 -13 15 -28 24 -27
16 -28 16 -51 -18 -13 -19 -27 -34 -32 -34 -5 0 -9 -6 -9 -14 0 -21 -27 -27
-44 -11 -8 8 -19 15 -25 15 -6 0 -11 5 -11 12 0 15 60 108 70 108 4 0 13 14
19 30 5 17 15 30 20 30 6 0 11 5 11 11 0 5 14 28 32 50 32 40 52 44 86 17z
m-2094 -38 c16 -16 21 -33 21 -75 0 -51 2 -57 30 -71 25 -13 57 -19 118 -23
20 -2 3 -31 -29 -50 -36 -22 -79 -28 -88 -12 -3 5 -18 12 -33 16 -15 3 -31 11
-34 17 -4 6 -12 9 -18 7 -6 -2 3 -24 21 -53 l32 -49 -24 -19 c-32 -26 -62 -19
-79 17 -8 17 -17 32 -20 35 -22 18 -111 171 -111 191 0 18 12 32 48 55 26 18
54 35 62 38 27 10 83 -3 104 -24z m1226 -59 c3 -4 41 -11 85 -15 44 -4 84 -11
90 -15 5 -5 29 -11 51 -15 23 -3 54 -13 70 -21 16 -8 35 -15 42 -15 7 0 20 -4
30 -9 9 -4 33 -15 52 -23 68 -30 195 -91 200 -97 5 -6 17 -14 98 -62 29 -17
58 -40 65 -50 6 -10 17 -19 24 -19 17 0 263 -241 263 -258 0 -7 7 -15 15 -18
8 -4 15 -12 15 -19 0 -7 7 -15 15 -19 8 -3 15 -10 15 -16 0 -10 37 -68 51 -80
3 -3 14 -21 25 -40 10 -19 21 -37 24 -40 3 -3 18 -29 33 -58 30 -59 35 -102
13 -102 -25 0 -46 12 -46 26 0 8 -4 14 -9 14 -5 0 -12 14 -16 30 -4 17 -11 30
-16 30 -5 0 -9 7 -9 15 0 8 -9 24 -20 35 -11 11 -20 26 -20 34 0 8 -3 16 -7
18 -5 2 -28 32 -53 68 -65 95 -247 290 -270 290 -6 0 -10 4 -10 8 0 5 -25 26
-56 48 -30 21 -61 44 -67 49 -25 22 -162 103 -189 112 -10 3 -18 9 -18 14 0 5
-8 9 -18 9 -10 0 -27 6 -38 14 -11 8 -37 17 -57 21 -20 4 -37 11 -37 16 0 4
-20 11 -45 15 -25 3 -45 10 -45 14 0 5 -19 11 -42 15 -23 4 -49 11 -58 16 -58
33 -467 43 -610 16 -186 -36 -210 -41 -210 -48 0 -5 -17 -11 -37 -15 -21 -4
-42 -10 -48 -13 -5 -4 -37 -17 -70 -30 -84 -32 -145 -63 -145 -73 0 -4 -8 -8
-19 -8 -10 0 -24 -7 -31 -15 -7 -8 -17 -15 -22 -15 -5 0 -14 -5 -21 -10 -7 -6
-57 -44 -112 -84 -55 -41 -134 -110 -175 -153 -77 -80 -140 -152 -140 -158 0
-7 -63 -100 -74 -110 -10 -10 -34 -51 -75 -130 -9 -16 -19 -31 -23 -33 -5 -2
-8 -10 -8 -17 0 -19 -26 -25 -46 -10 -18 12 -17 15 6 66 13 30 30 61 37 70 7
8 13 21 13 27 0 7 5 12 10 12 6 0 10 9 10 19 0 11 4 21 8 23 5 2 23 26 42 53
98 146 272 328 381 398 16 11 29 23 29 28 0 5 5 9 10 9 9 0 65 35 80 50 26 26
256 134 283 132 9 0 17 3 17 9 0 5 8 9 18 9 9 0 29 7 44 14 16 8 48 18 73 22
25 3 48 10 50 15 3 4 32 11 65 15 33 4 60 11 60 16 0 5 3 7 8 5 4 -3 45 -1 92
3 98 10 392 3 400 -9z m-1622 -211 c9 -5 35 -17 57 -26 105 -44 205 -94 205
-103 0 -16 -42 -51 -60 -51 -9 0 -20 4 -25 9 -6 4 -23 11 -40 14 -23 4 -37 -1
-58 -19 -34 -29 -37 -51 -12 -98 15 -28 17 -40 9 -54 -25 -39 -51 -8 -100 118
-10 25 -21 47 -24 50 -4 3 -16 26 -28 51 -25 51 -28 89 -10 107 14 14 61 16
86 2z m2892 -33 c78 -63 101 -120 84 -203 -6 -34 -62 -92 -107 -112 -123 -53
-262 68 -227 198 12 45 91 121 137 132 35 8 93 0 113 -15z m-3100 -260 c8 -7
21 -23 28 -37 11 -21 20 -25 55 -25 63 -1 87 -26 87 -92 0 -29 -6 -57 -13 -65
-7 -7 -16 -21 -20 -30 -3 -10 -11 -18 -17 -18 -5 0 -10 -6 -10 -14 0 -24 -29
-41 -48 -28 -10 6 -37 23 -62 37 -83 47 -115 67 -135 84 -11 10 -28 21 -37 24
-10 4 -18 13 -18 22 0 16 39 77 53 83 4 2 7 9 7 15 0 18 62 57 90 57 14 0 32
-6 40 -13z m3389 -121 c32 -46 48 -109 37 -149 -7 -30 -60 -57 -110 -57 -29 0
-44 8 -71 36 -30 30 -40 35 -63 29 -15 -4 -29 -10 -32 -15 -3 -5 -18 -12 -33
-15 -21 -6 -27 -4 -27 9 0 9 -4 16 -10 16 -37 0 28 74 75 86 14 3 25 10 25 15
0 5 4 9 10 9 5 0 37 18 71 40 34 22 70 40 80 40 10 0 31 -20 48 -44z m-2651
-607 c3 -104 0 -121 -23 -113 -11 4 -15 20 -15 55 l0 49 -172 -2 -173 -3 -3
-425 c-1 -234 0 -435 3 -447 4 -18 13 -22 53 -25 43 -3 47 -5 47 -28 l0 -25
-178 -3 c-152 -2 -178 0 -183 13 -10 25 15 45 57 45 l39 0 -2 448 -3 447 -172
2 -173 3 0 -55 c0 -31 -4 -55 -10 -55 -15 0 -19 16 -24 99 -7 129 -60 116 470
114 l459 -2 3 -92z m390 86 c17 -6 15 -42 -4 -49 -9 -3 -31 -6 -50 -6 l-34 0
0 -470 0 -470 39 0 c41 0 67 -20 57 -45 -4 -13 -33 -15 -179 -15 -185 0 -209
6 -183 43 9 11 27 17 55 17 l41 0 0 474 0 473 -30 -3 c-16 -2 -41 1 -55 6 -22
8 -24 13 -15 29 9 17 23 21 88 24 80 3 248 -2 270 -8z m1242 -1 c6 -6 15 -58
20 -115 5 -57 14 -126 19 -154 5 -27 10 -81 10 -120 1 -38 6 -86 11 -105 5
-20 14 -87 20 -150 6 -63 16 -167 23 -230 l12 -115 48 -6 c51 -5 73 -24 55
-46 -15 -19 -341 -18 -357 0 -17 22 9 46 54 49 34 3 39 6 37 23 -2 11 -10 83
-17 160 -8 77 -19 176 -25 220 -6 44 -12 98 -14 120 -1 22 -7 68 -11 103 l-8
62 -48 -97 c-27 -54 -48 -103 -49 -109 0 -7 -15 -43 -34 -80 -29 -61 -106
-221 -139 -294 -6 -14 -18 -36 -27 -49 -8 -14 -22 -45 -31 -70 -15 -45 -16
-46 -61 -49 l-46 -3 -65 128 c-35 70 -76 151 -90 178 -14 28 -28 57 -31 65 -3
8 -10 22 -15 30 -21 37 -53 99 -77 150 -15 30 -30 62 -35 70 -4 8 -19 39 -33
68 -14 28 -29 52 -34 52 -5 0 -10 -28 -10 -62 -1 -35 -6 -110 -12 -168 -14
-150 -28 -315 -32 -385 l-3 -60 39 -5 c45 -6 71 -34 46 -50 -8 -5 -76 -10
-151 -10 -117 0 -138 2 -143 16 -9 25 12 44 50 44 22 0 34 5 38 18 3 9 14 105
25 212 19 187 24 237 56 579 8 85 18 163 21 173 5 16 14 18 57 16 l51 -3 49
-95 c27 -52 119 -233 204 -402 86 -170 159 -308 163 -308 4 0 15 17 25 38 9
20 25 55 35 77 10 22 43 93 74 158 31 65 56 120 56 123 0 11 95 199 102 202 4
2 8 10 8 19 0 8 6 27 14 41 8 15 26 53 40 84 15 31 33 61 40 65 21 12 83 10
96 -3z m1012 -7 c11 -18 9 -170 -2 -187 -9 -13 -11 -13 -20 0 -5 8 -9 29 -8
46 1 17 -2 35 -5 41 -7 12 -443 10 -455 -2 -11 -10 -10 -338 1 -352 13 -18
388 -18 405 -1 7 7 12 24 12 39 0 30 25 46 34 23 8 -21 8 -218 0 -238 -10 -27
-34 -19 -34 12 0 15 -5 33 -12 40 -15 15 -394 17 -402 3 -11 -18 -15 -334 -5
-353 9 -17 25 -19 235 -18 123 1 224 4 225 8 0 4 2 26 2 49 1 23 6 45 10 49
18 18 27 -25 25 -111 l-3 -90 -374 -3 c-392 -2 -413 0 -388 39 9 14 23 19 54
19 l43 0 0 469 0 468 -51 7 c-45 6 -50 9 -47 29 3 19 10 23 68 27 129 10 684
-1 692 -13z m-134 -239 c7 -7 12 -31 12 -55 0 -39 -2 -43 -24 -43 -19 0 -27 8
-36 35 -6 19 -9 44 -5 55 7 22 35 26 53 8z m-3235 -11 c3 -7 0 -33 -5 -58 -14
-60 -22 -327 -10 -342 5 -7 12 -46 16 -87 4 -41 9 -82 11 -90 7 -24 -10 -43
-33 -36 -16 6 -22 19 -28 64 -4 31 -11 68 -16 82 -14 36 -12 403 2 445 9 27
17 35 35 35 12 0 25 -6 28 -13z m3231 -453 c34 -13 7 -105 -29 -100 -16 2 -21
12 -23 46 -4 52 13 69 52 54z m-3092 -491 c8 -10 29 -47 47 -82 18 -35 37 -69
42 -75 23 -27 79 -105 79 -109 0 -9 54 -70 123 -141 37 -38 67 -73 67 -78 0
-4 7 -8 15 -8 8 0 15 -4 15 -9 0 -4 17 -20 38 -34 20 -14 49 -37 64 -51 15
-14 30 -26 32 -26 3 0 25 -15 49 -33 24 -18 74 -49 112 -68 37 -19 81 -42 99
-51 17 -10 50 -23 74 -29 23 -6 42 -15 42 -19 0 -5 19 -11 42 -15 23 -4 49
-11 58 -15 41 -20 122 -40 185 -46 39 -4 75 -11 82 -16 7 -6 85 -8 190 -5 166
4 299 21 383 46 19 6 47 11 62 11 16 0 28 5 28 10 0 6 7 10 16 10 8 0 34 9 57
19 23 10 66 27 95 37 28 10 52 22 52 26 0 3 14 9 30 13 17 4 30 11 30 16 0 5
5 9 12 9 6 0 44 23 85 50 40 28 76 50 79 50 3 0 16 11 30 25 14 14 29 25 34
25 11 0 217 205 255 255 17 21 36 44 43 51 6 7 12 16 12 19 0 4 14 24 30 45
17 21 30 45 30 54 0 9 6 16 13 16 7 0 21 23 32 51 25 62 55 93 84 84 21 -6 28
-29 12 -39 -5 -3 -12 -18 -15 -32 -9 -33 -116 -203 -169 -269 -37 -45 -76 -89
-129 -146 -10 -11 -18 -23 -18 -29 0 -5 -6 -10 -12 -10 -7 0 -30 -16 -51 -35
-21 -19 -41 -35 -44 -35 -3 0 -14 -11 -25 -25 -11 -14 -26 -25 -34 -25 -8 0
-14 -4 -14 -8 0 -10 -77 -62 -91 -62 -5 0 -9 -4 -9 -8 0 -10 -193 -112 -213
-112 -8 0 -17 -3 -19 -7 -4 -9 -108 -53 -125 -53 -6 0 -24 -7 -39 -15 -16 -8
-39 -15 -52 -15 -13 0 -33 -5 -45 -12 -56 -30 -364 -53 -519 -40 -164 14 -281
31 -292 43 -6 5 -21 9 -35 9 -15 0 -39 7 -55 15 -15 8 -35 15 -43 15 -12 0
-41 11 -128 50 -11 5 -44 19 -72 31 -29 12 -53 25 -53 30 0 5 -9 9 -19 9 -11
0 -40 16 -65 35 -26 19 -49 35 -52 35 -2 0 -17 11 -32 25 -15 14 -35 28 -45
31 -22 7 -35 19 -157 138 -52 51 -115 119 -139 152 -25 32 -50 64 -55 69 -6 6
-17 22 -25 37 -8 15 -21 36 -30 46 -38 42 -105 177 -98 196 8 21 40 21 59 -1z
m2789 -539 c30 -31 78 -81 107 -110 55 -58 57 -61 42 -84 -8 -12 -33 -14 -151
-11 -162 4 -158 8 -71 -82 34 -37 50 -61 46 -71 -11 -29 -47 -17 -91 32 -25
26 -71 75 -105 109 -89 93 -85 97 94 103 l148 5 -55 57 c-30 32 -55 64 -56 70
-7 56 28 49 92 -18z m-2471 -64 c0 -5 5 -10 10 -10 6 0 23 -13 39 -29 15 -16
38 -34 50 -41 15 -7 21 -19 19 -33 -5 -34 -30 -31 -76 8 -24 21 -42 31 -42 23
0 -7 -9 -21 -20 -31 -11 -9 -20 -23 -20 -30 0 -14 26 -39 59 -56 26 -15 17
-41 -15 -41 -13 0 -24 5 -24 10 0 6 -8 10 -19 10 -10 0 -24 7 -31 15 -12 14
-15 14 -31 -1 -11 -10 -19 -21 -19 -26 0 -14 -39 -48 -57 -48 -20 0 -53 28
-53 47 0 7 3 13 8 13 4 0 18 17 32 37 14 20 30 41 35 48 25 27 75 95 75 101 0
4 8 15 18 25 18 19 62 25 62 9z m2058 -182 c17 -17 15 -38 -4 -38 -8 0 -22 -7
-30 -15 -8 -8 -22 -18 -30 -23 -13 -7 -13 -12 3 -40 21 -38 27 -38 71 -12 27
16 37 18 48 9 18 -15 18 -39 -1 -39 -8 0 -15 -4 -15 -10 0 -5 -5 -10 -10 -10
-6 0 -20 -9 -32 -20 -12 -11 -16 -20 -10 -20 7 0 12 -6 12 -13 0 -7 6 -22 14
-32 13 -18 15 -18 70 10 48 24 59 27 67 14 12 -19 11 -39 -2 -39 -6 0 -31 -13
-56 -30 -24 -16 -47 -30 -50 -30 -4 0 -14 -7 -24 -16 -23 -21 -46 -12 -61 23
-7 15 -18 32 -25 36 -7 4 -13 17 -13 27 0 11 -4 20 -10 20 -5 0 -10 5 -10 12
0 6 -15 34 -34 62 -47 70 -54 96 -27 103 12 3 21 9 21 14 0 5 6 9 14 9 8 0 16
3 18 8 3 6 76 49 89 51 3 1 10 -4 17 -11z m-1718 -57 c0 -4 16 -11 35 -14 43
-7 100 -62 110 -106 4 -17 4 -49 0 -70 -7 -44 -53 -121 -71 -121 -7 0 -14 -5
-16 -12 -2 -6 -29 -13 -61 -16 -44 -3 -65 0 -97 17 -57 29 -74 49 -89 98 -10
36 -9 51 4 90 22 67 36 93 52 93 7 0 13 6 13 13 0 7 10 17 23 23 27 14 97 17
97 5z m1374 -107 c9 -3 25 -34 35 -68 18 -56 35 -101 73 -194 12 -31 11 -35
-6 -48 -11 -8 -32 -14 -47 -14 -23 0 -28 6 -44 58 -9 31 -24 73 -33 92 l-16
35 -7 -35 c-4 -19 -14 -66 -22 -103 -8 -37 -19 -73 -24 -78 -16 -16 -52 12
-93 70 -19 28 -40 50 -46 51 -7 0 -14 10 -17 22 -13 49 -16 7 -6 -77 10 -81 9
-90 -7 -102 -30 -22 -41 1 -48 108 -4 55 -11 112 -17 125 -5 14 -9 41 -9 59 0
31 3 35 35 41 32 6 38 3 79 -42 25 -27 45 -53 46 -57 0 -4 12 -19 27 -33 l27
-25 12 29 c6 16 15 55 19 88 7 61 19 86 45 97 21 8 26 8 44 1z m-906 -51 c66
-19 86 -46 80 -108 -5 -43 -25 -75 -49 -75 -8 0 -9 -10 -5 -31 7 -36 43 -99
57 -99 5 0 9 -7 9 -15 0 -22 -43 -28 -83 -11 -35 14 -43 25 -75 106 -9 24 -10
23 -17 -15 -9 -50 -21 -65 -51 -65 -37 0 -54 24 -43 63 5 17 14 61 19 97 9 57
24 127 36 167 4 14 40 10 122 -14z"/>
<path d="M2550 4521 c0 -28 4 -52 8 -55 29 -18 54 61 27 87 -27 27 -35 20 -35
-32z"/>
<path d="M1800 4405 c0 -8 7 -27 16 -40 21 -33 46 -22 42 19 -2 25 -8 32 -30
34 -20 2 -28 -1 -28 -13z"/>
<path d="M1856 4292 c-8 -13 17 -84 31 -89 19 -7 43 16 43 42 0 37 -58 73 -74
47z"/>
<path d="M1440 4215 c-7 -8 -8 -15 -3 -15 5 0 17 -16 26 -35 9 -19 21 -35 27
-35 19 0 23 49 6 75 -19 28 -38 32 -56 10z"/>
<path d="M1158 3888 c10 -39 25 -48 50 -28 l22 18 -34 16 c-44 21 -45 20 -38
-6z"/>
<path d="M3977 3904 c-52 -35 -81 -65 -96 -99 -9 -20 -9 -31 -2 -33 6 -2 11
-12 11 -22 0 -24 26 -43 59 -43 50 0 142 101 134 148 -3 14 -8 25 -12 25 -3 0
-18 11 -32 24 l-27 25 -35 -25z"/>
<path d="M873 3625 c-19 -21 -16 -33 10 -41 12 -4 25 -11 28 -17 4 -5 12 0 18
11 9 18 8 25 -9 42 -23 23 -31 24 -47 5z"/>
<path d="M981 3556 c-10 -12 -8 -19 8 -35 12 -12 28 -21 36 -21 8 0 15 -5 15
-11 0 -19 18 1 25 28 5 20 2 31 -11 40 -24 17 -59 16 -73 -1z"/>
<path d="M4260 3514 c-42 -31 -45 -48 -7 -52 39 -5 79 23 75 51 -4 30 -27 30
-68 1z"/>
<path d="M1718 960 c-10 -6 -18 -17 -18 -25 0 -7 -3 -15 -7 -17 -5 -1 -15 -25
-25 -52 -25 -73 -8 -106 66 -130 12 -4 26 2 40 18 56 62 72 140 38 183 -20 26
-69 38 -94 23z"/>
<path d="M2183 780 c-11 -55 -8 -62 25 -53 28 7 30 62 3 87 -17 16 -19 15 -28
-34z"/>
</g>
</svg>
