<svg width="70" height="70" viewBox="0 0 70 70" fill="none" xmlns="http://www.w3.org/2000/svg">
<path d="M41.0449 25.1562H28.0833C26.892 25.1562 25.9231 26.1373 25.9231 27.3438V28.7405C26.5658 29.1189 27.0032 29.8167 27.0032 30.625V35.7897C27.3219 35.9778 27.688 36.0938 28.0833 36.0938H41.0449C42.2363 36.0938 43.2051 35.1127 43.2051 33.9062V27.3438C43.2051 26.1373 42.2363 25.1562 41.0449 25.1562Z" fill="#F0801C"/>
<path d="M67.0315 27.3164L61.2334 16.2258C59.3464 12.6153 55.8112 10.2845 51.846 9.91812V9.84375C51.846 8.63734 50.8772 7.65625 49.6858 7.65625H45.3653C44.1739 7.65625 43.205 8.63734 43.205 9.84375H42.1249C41.5297 9.84375 41.0448 9.35266 41.0448 8.75V3.28125C41.0448 2.07484 40.0759 1.09375 38.8845 1.09375H30.2435C29.0521 1.09375 28.0833 2.07484 28.0833 3.28125V8.75C28.0833 9.35266 27.5983 9.84375 27.0031 9.84375H25.923C25.923 8.63734 24.9541 7.65625 23.7627 7.65625H19.4422C18.2509 7.65625 17.282 8.63734 17.282 9.84375V9.91812C13.3168 10.2845 9.78158 12.6153 7.8946 16.2258L2.09648 27.3164C1.43112 28.5873 1.08008 30.0202 1.08008 31.4584C1.08008 34.72 2.84177 37.707 5.67818 39.2536L15.1217 44.403V44.8438C15.1217 46.0502 16.0906 47.0312 17.282 47.0312V66.7188C17.282 67.9252 18.2509 68.9062 19.4422 68.9062H49.6858C50.8772 68.9062 51.846 67.9252 51.846 66.7188V46.5566L63.5989 39.4155C66.3424 37.7486 68.0479 34.7003 68.0479 31.4584C68.0479 30.0202 67.6969 28.5873 67.0315 27.3164V27.3164ZM59.3238 17.2495L62.1591 22.6723L56.0596 26.5333L51.846 20.4367V12.1056C55.0087 12.4633 57.8127 14.3577 59.3238 17.2495V17.2495ZM51.846 24.2506L56.7185 31.2998L51.846 35V24.2506ZM30.2435 3.28125H38.8845V8.75C38.8845 9.30563 39.0347 9.82188 39.2766 10.2823C38.1295 11.3991 36.6087 12.0312 34.9907 12.0312H34.1384C32.5204 12.0312 30.9985 11.3991 29.8514 10.2823C30.0934 9.82188 30.2435 9.30563 30.2435 8.75V3.28125ZM27.0031 12.0312C27.4492 12.0312 27.8748 11.9394 28.2615 11.7731C29.8179 13.3372 31.9123 14.2188 34.1384 14.2188H34.9907C37.2168 14.2188 39.3101 13.3372 40.8676 11.7731C41.2532 11.9394 41.6788 12.0312 42.1249 12.0312H43.205V18.5938H25.923V12.0312H27.0031ZM23.7627 9.84375V18.5938C23.7627 19.8002 24.7316 20.7812 25.923 20.7812H43.205C44.3964 20.7812 45.3653 19.8002 45.3653 18.5938V9.84375H49.6858V49.2188H38.8845C37.6931 49.2188 36.7243 50.1998 36.7243 51.4062V66.7188H32.4038V51.4062C32.4038 50.1998 31.4349 49.2188 30.2435 49.2188H28.0833V30.625C28.0833 28.8159 26.6294 27.3438 24.8429 27.3438H19.4422V9.84375H23.7627ZM49.6858 51.4062V53.5938H38.8845V51.4062H49.6858ZM19.4422 51.4062H30.2435V53.5938H19.4422V51.4062ZM17.282 44.8438V42.6562H23.7627V40.4688H17.282V38.2812H23.7627V36.0938H17.282V33.9062H23.7627V31.7188H17.282V29.5312H24.8429C25.438 29.5312 25.923 30.0223 25.923 30.625V49.2188H23.7627V44.8438H17.282ZM17.282 24.2506V27.3438C16.0906 27.3438 15.1217 28.3248 15.1217 29.5312V33.7586L12.335 31.407L17.282 24.2506ZM9.80426 17.2495C11.3164 14.3577 14.1204 12.4633 17.282 12.1067V20.4367L13.0684 26.5322L6.96893 22.6723L9.80426 17.2495ZM6.70322 37.3286C4.56781 36.1638 3.24033 33.915 3.24033 31.4584C3.24033 30.3756 3.50496 29.2961 4.00506 28.3391L5.95469 24.6094L11.8273 28.3259L10.5182 30.2203C9.59364 29.7861 8.59128 29.5312 7.56084 29.5312V31.7188C8.70145 31.7188 9.81182 32.1267 10.6889 32.865L15.1217 36.6056V41.9191L6.70322 37.3286ZM21.6025 47.0312V49.2188H19.4422V47.0312H21.6025ZM19.4422 55.7812H30.2435V66.7188H19.4422V55.7812ZM38.8845 66.7188V55.7812H49.6858V66.7188H38.8845ZM62.4875 37.5408L51.846 44.0059V37.7344L58.3268 32.8125C59.2546 32.107 60.406 31.7188 61.5672 31.7188V29.5312C60.5378 29.5312 59.5247 29.7719 58.5828 30.182L57.3007 28.327L63.1733 24.6105L65.123 28.3402C65.6231 29.2972 65.8877 30.3756 65.8877 31.4584C65.8877 33.9358 64.584 36.2666 62.4875 37.5408V37.5408Z" fill="white"/>
</svg>
