<svg width="70" height="70" viewBox="0 0 70 70" fill="none" xmlns="http://www.w3.org/2000/svg">
<path d="M33.4838 30.625C33.4838 28.8159 32.0299 27.3438 30.2434 27.3438H17.2819C15.4954 27.3438 14.0415 28.8159 14.0415 30.625V45.9375H33.4838V30.625Z" fill="#F0801C"/>
<path d="M61.5671 64.5312H48.6056C47.4142 64.5312 46.4453 63.5502 46.4453 62.3438V51.4062C46.4453 46.5817 50.3219 42.6562 55.0863 42.6562C59.8508 42.6562 63.7273 46.5817 63.7273 51.4062V62.3438C63.7273 63.5502 62.7585 64.5312 61.5671 64.5312Z" fill="#F0801C"/>
<path d="M23.9932 32.3978L25.5207 30.851L29.8413 35.2261L28.3138 36.7729L23.9932 32.3978Z" fill="white"/>
<path d="M17.5125 38.9592L19.04 37.4124L23.3606 41.7875L21.8331 43.3343L17.5125 38.9592Z" fill="white"/>
<path d="M18.5925 33.4915L20.1198 31.9449L28.7598 40.6938L27.2325 42.2404L18.5925 33.4915Z" fill="white"/>
<path d="M63.6474 32.0975V27.25C63.6474 26.0436 62.6785 25.0625 61.4871 25.0625H59.3269V17.4062C59.3269 15.5972 57.873 14.125 56.0865 14.125H53.9262C52.1397 14.125 50.6858 15.5972 50.6858 17.4062V25.0625H48.5256C47.3342 25.0625 46.3653 26.0436 46.3653 27.25V32.0975C43.692 33.7217 42.0448 36.6005 42.0448 39.7975V45.2837C41.454 44.9545 40.7854 44.75 40.0639 44.75H37.7243V24.4216C37.7243 23.8462 37.4942 23.2819 37.0914 22.875L31.2436 16.9534V14.125C31.2436 12.9186 30.2747 11.9375 29.0833 11.9375H26.923V9.75C26.923 8.54359 27.8919 7.5625 29.0833 7.5625H33.4038C34.418 7.5625 35.388 8.0525 35.9961 8.87391L37.5072 10.9159C37.9803 11.5547 38.7342 11.9375 39.5249 11.9375C40.9139 11.9375 42.0448 10.7923 42.0448 9.38578V8.65625C42.0448 4.43547 38.6532 1 34.4839 1H16.1218C14.9304 1 13.9615 1.98109 13.9615 3.1875V5.375C13.9615 6.58141 14.9304 7.5625 16.1218 7.5625H18.282C19.4734 7.5625 20.4423 8.54359 20.4423 9.75V11.9375H18.282C17.0907 11.9375 16.1218 12.9186 16.1218 14.125V16.9534L10.274 22.875C9.87108 23.2819 9.64102 23.8462 9.64102 24.4216V44.75H5.14121C2.85782 44.75 1 46.6312 1 48.9434C1 49.1064 1.00972 49.2716 1.02808 49.4334L2.49382 62.0509C2.94207 65.9064 6.17057 68.8125 10.0029 68.8125H35.2011C38.394 68.8125 41.1613 66.7923 42.2576 63.8906C42.9802 66.7158 45.512 68.8125 48.5256 68.8125H61.4871C65.0612 68.8125 67.9679 65.8692 67.9679 62.25V39.7975C67.9679 36.6005 66.3207 33.7206 63.6474 32.0975V32.0975ZM52.8461 17.4062C52.8461 16.8025 53.3311 16.3125 53.9262 16.3125H56.0865C56.6816 16.3125 57.1666 16.8025 57.1666 17.4062V25.0625H52.8461V17.4062ZM48.5256 27.25H61.4871V31.625H48.5256V27.25ZM29.0833 14.125V16.3125H26.923V14.125H29.0833ZM22.6025 16.3125V14.125H24.7628V16.3125H22.6025ZM18.282 5.375H16.1218V3.1875H34.4839C37.4618 3.1875 39.8846 5.64078 39.8846 8.65625V9.38578C39.8846 9.70078 39.4234 9.85609 39.2365 9.60453L37.7243 7.56141C36.7101 6.19203 35.0942 5.375 33.4038 5.375H29.0833C27.4912 5.375 26.1129 6.26094 25.3633 7.5625H22.0009C21.2524 6.26094 19.8741 5.375 18.282 5.375V5.375ZM22.6025 9.75H24.7628V11.9375H22.6025V9.75ZM18.282 14.125H20.4423V16.3125H18.282V14.125ZM11.8013 25.0625H20.4423V22.875H13.3286L17.6491 18.5H29.7163L34.0368 22.875H24.7628V25.0625H35.5641V44.75H11.8013V25.0625ZM5.14121 46.9375H40.0639C41.1559 46.9375 42.0448 47.8366 42.0448 48.9434C42.0448 49.0211 42.0405 49.0988 42.0308 49.1775L41.7834 51.3125H3.42164L3.17322 49.1764C3.16457 49.0988 3.16025 49.0211 3.16025 48.9434C3.16025 47.8366 4.0492 46.9375 5.14121 46.9375V46.9375ZM37.4078 53.5L36.3158 61.3094C36.2413 61.8453 35.7812 62.25 35.2465 62.25H9.95857C9.42391 62.25 8.96378 61.8453 8.88925 61.3105L7.79724 53.5H37.4078ZM40.565 61.795C40.2453 64.5491 37.9393 66.625 35.2022 66.625H10.0029C7.26474 66.625 4.95866 64.5491 4.63895 61.795L3.67655 53.5H5.61538L6.74952 61.6167C6.97526 63.2245 8.35458 64.4375 9.95857 64.4375H35.2465C36.8505 64.4375 38.2298 63.2245 38.4556 61.6156L39.5897 53.5H41.5296L40.565 61.795ZM61.4871 66.625H48.5256C46.1428 66.625 44.2051 64.6628 44.2051 62.25V40.375H50.6858V38.1875H44.406C44.8467 36.3325 46.0337 34.7455 47.7349 33.8125H62.2767C63.9779 34.7455 65.1649 36.3325 65.6056 38.1875H52.8461V40.375H65.8076V62.25C65.8076 64.6628 63.8699 66.625 61.4871 66.625Z" fill="white"/>
<path d="M55.0063 46.9375C52.6397 46.9375 50.6858 54.3728 50.6858 55.6875C50.6858 58.1003 52.6235 60.0625 55.0063 60.0625C57.3891 60.0625 59.3268 58.1003 59.3268 55.6875C59.3268 54.3728 57.3729 46.9375 55.0063 46.9375ZM55.0063 57.875C53.8149 57.875 52.846 56.8939 52.846 55.6875C52.846 54.4209 54.1573 50.77 55.0063 49.452C55.8553 50.77 57.1666 54.4209 57.1666 55.6875C57.1666 56.8939 56.1977 57.875 55.0063 57.875Z" fill="white"/>
</svg>
