<svg width="70" height="70" viewBox="0 0 70 70" fill="none" xmlns="http://www.w3.org/2000/svg">
<path d="M13.6895 33.6142L19.2165 33.0542C20.6336 32.9109 21.7926 31.8467 22.0713 30.4325L22.6027 27.7441H22.607C19.4811 26.4272 17.282 23.3067 17.282 19.6634V17.325C17.282 14.7656 18.752 12.4392 21.0473 11.3663L24.7651 9.62828L24.7597 9.58672C25.5352 10.7045 26.7028 11.5325 28.1038 11.8169L31.0903 12.4217C33.1102 12.8308 34.564 14.6256 34.564 16.7114V19.6623C34.564 23.3056 32.3627 26.4272 29.2336 27.743H29.2422L29.7737 30.4314C30.0534 31.8456 31.2113 32.9098 32.6284 33.0531L37.9686 33.5934C38.6599 33.6634 39.3295 33.8341 39.9646 34.0856V15.3125C39.9646 7.4725 33.6653 1.09375 25.923 1.09375C18.1806 1.09375 11.8813 7.4725 11.8813 15.3125V34.0769C12.4549 33.8395 13.0608 33.6777 13.6895 33.6142V33.6142Z" fill="#F0801C"/>
<path d="M21.6026 18.5938C22.1991 18.5938 22.6827 18.1041 22.6827 17.5C22.6827 16.8959 22.1991 16.4062 21.6026 16.4062C21.0061 16.4062 20.5225 16.8959 20.5225 17.5C20.5225 18.1041 21.0061 18.5938 21.6026 18.5938Z" fill="white"/>
<path d="M30.2435 18.5938C30.84 18.5938 31.3236 18.1041 31.3236 17.5C31.3236 16.8959 30.84 16.4062 30.2435 16.4062C29.6469 16.4062 29.1633 16.8959 29.1633 17.5C29.1633 18.1041 29.6469 18.5938 30.2435 18.5938Z" fill="white"/>
<path d="M30.0157 22.5947L30.1291 22.3639L28.1967 21.385L28.0833 21.6169C27.6718 22.4503 26.8444 22.9688 25.9231 22.9688C25.0017 22.9688 24.1743 22.4503 23.7628 21.6169L23.6494 21.3861L21.717 22.365L21.8305 22.5958C22.6103 24.1752 24.1787 25.1563 25.9231 25.1563C27.6675 25.1563 29.2358 24.1752 30.0157 22.5947V22.5947Z" fill="white"/>
<path d="M62.6473 13.125C61.1546 13.125 59.651 13.2508 58.1788 13.4991L47.896 15.2348L46.5761 13.8983C46.0836 13.3995 45.429 13.125 44.7323 13.125C43.2947 13.125 42.1249 14.3095 42.1249 15.7653V25.7972C42.1249 27.253 43.2947 28.4375 44.7323 28.4375C45.429 28.4375 46.0836 28.163 46.5761 27.6642L47.896 26.3277L51.6052 26.9533C51.2552 27.4378 50.9992 27.9923 50.8674 28.5895C49.5573 29.0106 48.6057 30.2542 48.6057 31.7188C48.6057 32.7163 48.9891 33.6547 49.6858 34.3591L50.7659 35.4528V44.0103L43.8542 35.6114C42.396 33.8384 40.3438 32.7359 38.0755 32.5062L32.7354 31.9648C31.7848 31.8686 31.0201 31.1675 30.8322 30.217L30.4649 28.3566C33.5411 26.7017 35.6441 23.4248 35.6441 19.6634V16.7125C35.6441 14.1148 33.8187 11.8595 31.3031 11.3498L28.3155 10.745C26.3043 10.337 24.8429 8.53234 24.8429 6.45422V4.375H22.6826V6.45422C22.6826 7.40031 22.8846 8.30812 23.2497 9.13172L20.5947 10.3731C17.9257 11.62 16.2019 14.3489 16.2019 17.3239V19.6623C16.2019 22.2972 17.2161 24.7723 19.0588 26.6328C19.7544 27.335 20.5364 27.9158 21.3789 28.3686L21.0138 30.2181C20.827 31.1675 20.0622 31.8686 19.1106 31.9648L13.5825 32.5248C11.4407 32.7425 9.48671 33.8778 8.2208 35.6398L2.12564 44.1263C1.44084 45.0778 1.08008 46.2033 1.08008 47.3802C1.08008 48.8589 1.64822 50.248 2.67975 51.2914L14.0416 62.7966V68.9062H37.8044V46.247L48.4717 56.2177C49.6793 57.3475 51.2487 57.9688 52.8916 57.9688C56.4841 57.9688 59.4069 55.0091 59.4069 51.3712V36.9863C60.661 36.5334 61.5672 35.3303 61.5672 33.9062V28.3927C61.9279 28.4069 62.2876 28.4375 62.6473 28.4375C65.6252 28.4375 68.0479 25.9842 68.0479 22.9688V18.5938C68.0479 15.5783 65.6252 13.125 62.6473 13.125V13.125ZM44.2852 25.7972V15.7653C44.2852 15.3956 44.7907 15.1834 45.0488 15.4448L46.4454 16.8591V24.7034L45.0488 26.1177C44.7907 26.378 44.2852 26.1669 44.2852 25.7972ZM48.6057 17.3327L58.5342 15.657C58.8226 15.6089 59.1164 15.5859 59.4069 15.5477V26.0159C59.1164 25.9777 58.8226 25.9547 58.5342 25.9066L48.6057 24.2298V17.3327ZM27.0031 57.9688V66.7188H24.8429V57.9688C24.8429 56.7623 23.874 55.7812 22.6826 55.7812H20.5224V44.8438C20.5224 43.6373 19.5535 42.6562 18.3621 42.6562H16.2019V34.4586L18.3621 34.2398V37.1875C18.3621 38.9966 19.816 40.4688 21.6025 40.4688H30.2435C32.03 40.4688 33.4839 38.9966 33.4839 37.1875V34.2398L35.6441 34.4586V55.7812H29.1634C27.972 55.7812 27.0031 56.7623 27.0031 57.9688ZM16.2019 49.2188H18.3621V51.4062H16.2019V49.2188ZM18.3621 47.0312H16.2019V44.8438H18.3621V47.0312ZM14.0416 50.9534L12.2486 49.1378L14.0416 46.8683V50.9534ZM16.2019 53.5938H18.3621V55.7812H16.2019V53.5938ZM31.3236 34.2355V37.1875C31.3236 37.7912 30.8387 38.2812 30.2435 38.2812H21.6025C21.0073 38.2812 20.5224 37.7912 20.5224 37.1875V34.2355C22.068 35.4353 23.9442 36.0938 25.923 36.0938C27.9018 36.0938 29.778 35.4353 31.3236 34.2355ZM18.3621 19.6634V17.325C18.3621 15.1998 19.5935 13.2497 21.4999 12.3594L24.4691 10.9714C25.3657 11.9284 26.5462 12.6164 27.8921 12.8888L30.8786 13.4936C32.3886 13.7998 33.4839 15.1528 33.4839 16.7114V19.6623C33.4839 23.8722 30.102 27.3066 25.9446 27.3186C23.9453 27.2869 22.0173 26.53 20.585 25.0841C19.1528 23.6381 18.3621 21.712 18.3621 19.6634ZM25.923 29.5072H25.9511C26.8065 29.505 27.6318 29.3781 28.4224 29.1648L28.7151 30.648C28.8717 31.4398 29.2379 32.1377 29.7391 32.7053C28.6233 33.483 27.3056 33.9062 25.923 33.9062C24.5404 33.9062 23.2227 33.483 22.108 32.7053C22.6092 32.1377 22.9753 31.4398 23.1319 30.648L23.4236 29.1692C24.2294 29.3847 25.0665 29.5072 25.923 29.5072V29.5072ZM9.96736 36.9272C10.8714 35.6683 12.268 34.8567 13.7975 34.7025L14.0416 34.6773V43.3661L10.7116 47.5814L5.84992 42.6584L9.96736 36.9272ZM4.20813 49.7448C3.58381 49.1137 3.24033 48.2748 3.24033 47.3802C3.24033 46.6681 3.45852 45.9889 3.87113 45.4125L4.56349 44.4489L14.0416 54.0466V59.7034L4.20813 49.7448ZM16.2019 57.9688H22.6826V66.7188H16.2019V57.9688ZM29.1634 66.7188V57.9688H35.6441V66.7188H29.1634ZM37.8044 34.6773L37.8606 34.6828C39.5618 34.8545 41.1009 35.6825 42.1951 37.0114L46.9487 42.7875L42.3118 47.483L37.8044 43.272V34.6773ZM52.8916 55.7812C51.7931 55.7812 50.7443 55.3656 49.9375 54.612L43.8995 48.9694L48.3367 44.4763L50.7659 47.4272V51.4062H52.9262V34.5472L51.2131 32.8125C50.929 32.5248 50.7659 32.1256 50.7659 31.7188C50.7659 31.1161 51.2509 30.625 51.846 30.625H52.9262V29.5312C52.9262 28.5589 53.5721 27.7091 54.4805 27.4389L55.0864 27.5417V33.9062C55.0864 35.3303 55.9926 36.5334 57.2467 36.9863V51.3712C57.2467 53.8027 55.2927 55.7812 52.8916 55.7812ZM59.4069 33.9062C59.4069 34.5089 58.922 35 58.3268 35C57.7317 35 57.2467 34.5089 57.2467 33.9062V27.9059L58.1788 28.0634C58.585 28.1323 58.9976 28.1684 59.4069 28.2177V33.9062ZM62.6473 26.25C62.2876 26.25 61.9279 26.2205 61.5672 26.2052V15.3584C61.9279 15.342 62.2876 15.3125 62.6473 15.3125C64.0536 15.3125 65.2418 16.2302 65.6889 17.5H63.7274V19.6875H65.8877V21.875H63.7274V24.0625H65.6889C65.2418 25.3323 64.0536 26.25 62.6473 26.25Z" fill="white"/>
<path d="M50.7659 19.6875H52.9261V21.875H50.7659V19.6875Z" fill="white"/>
<path d="M55.0864 19.6875H57.2467V21.875H55.0864V19.6875Z" fill="white"/>
</svg>
