<svg width="70" height="70" viewBox="0 0 70 70" fill="none" xmlns="http://www.w3.org/2000/svg">
<path d="M35.736 53.7787L35.6907 53.7754H35.6442V57.9688C35.6442 58.5726 35.1603 59.0626 34.5641 59.0626H28.0833C27.4871 59.0626 27.0032 58.5726 27.0032 57.9688V53.7787H26.9114C24.1452 54.0171 15.1218 55.101 15.1218 59.0626C15.1218 62.8207 23.5198 64.5313 31.3237 64.5313C39.1276 64.5313 47.5256 62.8207 47.5256 59.0626C47.5256 55.101 38.5022 54.0171 35.736 53.7787Z" fill="#F0801C"/>
<path d="M64.8076 40.4688H63.5427C62.6776 40.4688 61.8631 40.81 61.2507 41.4302L60.0194 42.677L55.8954 35.9964L58.6314 32.1234C59.1607 31.372 59.4404 30.4872 59.4404 29.5641C59.4404 27.1338 57.4875 25.1562 55.0875 25.1562H44.1383C41.9337 25.1562 39.8037 24.7745 37.8044 24.0822V20.7812H59.4069V18.5938C59.4069 16.1809 57.4692 14.2188 55.0864 14.2188H33.4839C32.2925 14.2188 31.3236 15.1998 31.3236 16.4062V20.2847C29.0716 18.2831 27.2559 15.7423 26.0861 12.7816L23.4203 6.03312C22.8824 4.67141 21.7267 3.71 20.3549 3.39938C19.9348 2.06719 18.7164 1.09375 17.2647 1.09375H16.3606C15.2665 1.09375 14.2231 1.50828 13.4205 2.26188L4.98258 10.1948L4.99122 10.2047C3.92189 11.2011 3.24033 12.6175 3.24033 14.2013V18.725C1.99711 19.0903 1.08008 20.2409 1.08008 21.6158C1.08008 21.8838 1.11572 22.1506 1.18485 22.412L2.8234 28.4944C4.90049 36.2075 10.5042 42.4648 17.8544 45.3381C18.8687 47.6219 21.1326 49.2188 23.7627 49.2188H28.0833V51.4062C26.8919 51.4062 25.923 52.3873 25.923 53.5938V57.9688C25.923 59.1752 26.8919 60.1562 28.0833 60.1562H34.564C35.7554 60.1562 36.7243 59.1752 36.7243 57.9688V53.5938C36.7243 52.3873 35.7554 51.4062 34.564 51.4062V49.2188H41.0448C42.6369 49.2188 44.0151 48.3328 44.7647 47.0312H46.4454C47.6055 47.0312 48.6165 46.4056 49.1889 45.4759L49.1943 45.4803L51.7251 41.8994L55.2106 47.5464L51.7153 51.0858C51.1029 51.7048 50.7659 52.5295 50.7659 53.4067V54.6875C50.7659 56.4966 52.2198 57.9688 54.0063 57.9688H55.2711C56.1363 57.9688 56.9507 57.6275 57.5632 57.0073L67.0985 47.3517C67.7109 46.7327 68.0479 45.908 68.0479 45.0308V43.75C68.0479 41.9409 66.5941 40.4688 64.8076 40.4688V40.4688ZM55.0864 27.3438C56.2962 27.3438 57.2791 28.3402 57.2791 29.5641C57.2791 30.0289 57.1387 30.4752 56.873 30.8514L49.0906 41.8666C48.5041 41.0244 47.5396 40.4688 46.4454 40.4688H23.7627V36.0938H45.3653V33.9062C45.3653 31.4934 43.4275 29.5312 41.0448 29.5312H28.5304L33.4828 24.5164C36.6551 26.3331 40.3016 27.3438 44.1383 27.3438H55.0864ZM41.0448 31.7188C42.2362 31.7188 43.205 32.6998 43.205 33.9062H19.4422V31.7188H41.0448ZM33.4839 16.4062H55.0864C56.2778 16.4062 57.2467 17.3873 57.2467 18.5938H33.4839V16.4062ZM33.4839 20.7812H35.6441V23.1952C34.8956 22.8288 34.1773 22.4088 33.4839 21.9494V20.7812ZM14.8906 3.86531C15.2913 3.48906 15.8141 3.28125 16.3606 3.28125H17.2647C17.8696 3.28125 18.3621 3.78 18.3621 4.3925V10.0319C18.3621 10.3239 18.2498 10.5995 18.0543 10.7975L11.8813 16.9072V12.0477C11.8813 10.5525 10.8865 9.30016 9.53747 8.89766L14.8906 3.86531ZM9.38301 19.3812C9.18859 19.5683 8.92936 19.6875 8.64097 19.6875H7.14283C6.64597 19.2434 6.05082 18.9241 5.40059 18.7491V14.2013C5.40059 12.402 6.84688 10.9375 8.62368 10.9375C9.22856 10.9375 9.72109 11.4362 9.72109 12.0487V18.5938C9.72109 18.8869 9.60336 19.1505 9.41758 19.3473L9.38301 19.3812ZM4.90697 27.918L3.2695 21.8378C3.25005 21.7656 3.24033 21.6912 3.24033 21.6169C3.24033 21.1564 3.61082 20.7812 4.06555 20.7812H4.28697C5.17592 20.7812 5.96333 21.3216 6.29277 22.1561L8.9596 28.9056C10.6338 33.145 13.5113 36.6592 17.2831 39.1289V42.6562C17.2831 42.6781 17.2863 42.6989 17.2863 42.7197C11.2398 39.8902 6.67514 34.4827 4.90697 27.918ZM17.282 31.7188V36.4667C14.4639 34.312 12.2929 31.4562 10.9643 28.093L8.50811 21.875H8.64097C9.47698 21.875 10.232 21.5447 10.8066 21.0164L10.8131 21.023L10.8952 20.9409C10.9146 20.9223 10.9341 20.9037 10.9524 20.8841L19.5719 12.3506C20.1854 11.7316 20.5224 10.908 20.5224 10.0308V5.79688C20.9144 6.0375 21.2352 6.39187 21.4145 6.84359L24.0803 13.5931C25.667 17.6083 28.3166 20.93 31.6207 23.3089L25.4758 29.5312H19.4422C18.2509 29.5312 17.282 30.5123 17.282 31.7188V31.7188ZM34.5651 57.9688H28.0833V53.5938H34.564L34.5651 57.9688ZM32.4038 51.4062H30.2435V49.2188H32.4038V51.4062ZM41.0448 47.0312H23.7627C21.38 47.0312 19.4422 45.0691 19.4422 42.6562V36.0938H21.6025V40.4688C21.6025 41.6752 22.5714 42.6562 23.7627 42.6562H41.0448C42.2362 42.6562 43.205 43.6373 43.205 44.8438C43.205 46.0502 42.2362 47.0312 41.0448 47.0312ZM46.4454 44.8438H45.3653C45.3653 44.0431 45.1363 43.3027 44.7647 42.6562H46.4454C47.0406 42.6562 47.5255 43.1473 47.5255 43.75C47.5255 44.3527 47.0406 44.8438 46.4454 44.8438ZM53.0849 39.9744L54.5356 37.9214L58.451 44.2652L56.7779 45.9594L53.0849 39.9744ZM52.9262 54.6875V53.5938H54.0063C54.6014 53.5938 55.0864 54.0848 55.0864 54.6875V55.7812H54.0063C53.4111 55.7812 52.9262 55.2902 52.9262 54.6875ZM65.8877 45.0308C65.8877 45.3228 65.7754 45.5984 65.5712 45.8052L57.2056 54.2763C57.0199 52.7986 55.8717 51.6359 54.4124 51.4478L62.778 42.9767C62.9821 42.77 63.2543 42.6562 63.5427 42.6562H64.8076C65.4027 42.6562 65.8877 43.1473 65.8877 43.75V45.0308Z" fill="white"/>
<path d="M45.3654 61.9795V63.4375C45.3654 64.4186 40.588 66.7188 31.3237 66.7188C22.0595 66.7188 17.2821 64.4186 17.2821 63.4375V61.9795C15.933 61.1975 15.1218 60.2295 15.1218 59.0625V63.4375C15.1218 67.1956 23.5198 68.9062 31.3237 68.9062C39.1276 68.9062 47.5256 67.1956 47.5256 63.4375V59.0625C47.5256 60.2284 46.7145 61.1975 45.3654 61.9795Z" fill="white"/>
</svg>
