<svg width="30" height="30" viewBox="0 0 30 30" fill="none" xmlns="http://www.w3.org/2000/svg">
<g clip-path="url(#clip0_19_417)">
<path d="M15.4997 12.017C13.8005 12.017 12.4169 13.3553 12.4169 14.9997C12.4169 16.6447 13.8005 17.9837 15.4997 17.9837C17.1995 17.9837 18.5824 16.6447 18.5824 14.9997C18.5824 13.3553 17.1995 12.017 15.4997 12.017ZM15.4997 12.017C13.8005 12.017 12.4169 13.3553 12.4169 14.9997C12.4169 16.6447 13.8005 17.9837 15.4997 17.9837C17.1995 17.9837 18.5824 16.6447 18.5824 14.9997C18.5824 13.3553 17.1995 12.017 15.4997 12.017ZM20.6354 7.15292H10.3646C8.72528 7.15292 7.39135 8.44382 7.39135 10.0303V19.9697C7.39135 21.5562 8.72528 22.8471 10.3646 22.8471H20.6354C22.2747 22.8471 23.6086 21.5562 23.6086 19.9697V10.0303C23.6086 8.44382 22.2747 7.15292 20.6354 7.15292ZM15.4997 20.1665C12.5563 20.1665 10.1612 17.8487 10.1612 14.9997C10.1612 12.1513 12.5563 9.83345 15.4997 9.83345C18.4437 9.83345 20.8388 12.1513 20.8388 14.9997C20.8388 17.8487 18.4437 20.1665 15.4997 20.1665ZM21.0102 10.9018C20.3136 10.9018 19.747 10.3535 19.747 9.67941C19.747 9.00533 20.3136 8.45698 21.0102 8.45698C21.7067 8.45698 22.2734 9.00533 22.2734 9.67941C22.2734 10.3535 21.7067 10.9018 21.0102 10.9018ZM15.4997 12.017C13.8005 12.017 12.4169 13.3553 12.4169 14.9997C12.4169 16.6447 13.8005 17.9837 15.4997 17.9837C17.1995 17.9837 18.5824 16.6447 18.5824 14.9997C18.5824 13.3553 17.1995 12.017 15.4997 12.017ZM20.6354 7.15292H10.3646C8.72528 7.15292 7.39135 8.44382 7.39135 10.0303V19.9697C7.39135 21.5562 8.72528 22.8471 10.3646 22.8471H20.6354C22.2747 22.8471 23.6086 21.5562 23.6086 19.9697V10.0303C23.6086 8.44382 22.2747 7.15292 20.6354 7.15292ZM15.4997 20.1665C12.5563 20.1665 10.1612 17.8487 10.1612 14.9997C10.1612 12.1513 12.5563 9.83345 15.4997 9.83345C18.4437 9.83345 20.8388 12.1513 20.8388 14.9997C20.8388 17.8487 18.4437 20.1665 15.4997 20.1665ZM21.0102 10.9018C20.3136 10.9018 19.747 10.3535 19.747 9.67941C19.747 9.00533 20.3136 8.45698 21.0102 8.45698C21.7067 8.45698 22.2734 9.00533 22.2734 9.67941C22.2734 10.3535 21.7067 10.9018 21.0102 10.9018ZM15.4997 12.017C13.8005 12.017 12.4169 13.3553 12.4169 14.9997C12.4169 16.6447 13.8005 17.9837 15.4997 17.9837C17.1995 17.9837 18.5824 16.6447 18.5824 14.9997C18.5824 13.3553 17.1995 12.017 15.4997 12.017ZM0 0V30H31V0H0ZM25.8643 19.9697C25.8643 22.7602 23.5189 25.03 20.6354 25.03H10.3646C7.48114 25.03 5.13572 22.7602 5.13572 19.9697V10.0303C5.13572 7.23981 7.48114 4.97005 10.3646 4.97005H20.6354C23.5189 4.97005 25.8643 7.23981 25.8643 10.0303V19.9697ZM20.6354 7.15292H10.3646C8.72528 7.15292 7.39135 8.44382 7.39135 10.0303V19.9697C7.39135 21.5562 8.72528 22.8471 10.3646 22.8471H20.6354C22.2747 22.8471 23.6086 21.5562 23.6086 19.9697V10.0303C23.6086 8.44382 22.2747 7.15292 20.6354 7.15292ZM15.4997 20.1665C12.5563 20.1665 10.1612 17.8487 10.1612 14.9997C10.1612 12.1513 12.5563 9.83345 15.4997 9.83345C18.4437 9.83345 20.8388 12.1513 20.8388 14.9997C20.8388 17.8487 18.4437 20.1665 15.4997 20.1665ZM21.0102 10.9018C20.3136 10.9018 19.747 10.3535 19.747 9.67941C19.747 9.00533 20.3136 8.45698 21.0102 8.45698C21.7067 8.45698 22.2734 9.00533 22.2734 9.67941C22.2734 10.3535 21.7067 10.9018 21.0102 10.9018ZM15.4997 12.017C13.8005 12.017 12.4169 13.3553 12.4169 14.9997C12.4169 16.6447 13.8005 17.9837 15.4997 17.9837C17.1995 17.9837 18.5824 16.6447 18.5824 14.9997C18.5824 13.3553 17.1995 12.017 15.4997 12.017ZM15.4997 12.017C13.8005 12.017 12.4169 13.3553 12.4169 14.9997C12.4169 16.6447 13.8005 17.9837 15.4997 17.9837C17.1995 17.9837 18.5824 16.6447 18.5824 14.9997C18.5824 13.3553 17.1995 12.017 15.4997 12.017ZM15.4997 12.017C13.8005 12.017 12.4169 13.3553 12.4169 14.9997C12.4169 16.6447 13.8005 17.9837 15.4997 17.9837C17.1995 17.9837 18.5824 16.6447 18.5824 14.9997C18.5824 13.3553 17.1995 12.017 15.4997 12.017ZM20.6354 7.15292H10.3646C8.72528 7.15292 7.39135 8.44382 7.39135 10.0303V19.9697C7.39135 21.5562 8.72528 22.8471 10.3646 22.8471H20.6354C22.2747 22.8471 23.6086 21.5562 23.6086 19.9697V10.0303C23.6086 8.44382 22.2747 7.15292 20.6354 7.15292ZM15.4997 20.1665C12.5563 20.1665 10.1612 17.8487 10.1612 14.9997C10.1612 12.1513 12.5563 9.83345 15.4997 9.83345C18.4437 9.83345 20.8388 12.1513 20.8388 14.9997C20.8388 17.8487 18.4437 20.1665 15.4997 20.1665ZM21.0102 10.9018C20.3136 10.9018 19.747 10.3535 19.747 9.67941C19.747 9.00533 20.3136 8.45698 21.0102 8.45698C21.7067 8.45698 22.2734 9.00533 22.2734 9.67941C22.2734 10.3535 21.7067 10.9018 21.0102 10.9018ZM15.4997 12.017C13.8005 12.017 12.4169 13.3553 12.4169 14.9997C12.4169 16.6447 13.8005 17.9837 15.4997 17.9837C17.1995 17.9837 18.5824 16.6447 18.5824 14.9997C18.5824 13.3553 17.1995 12.017 15.4997 12.017ZM15.4997 12.017C13.8005 12.017 12.4169 13.3553 12.4169 14.9997C12.4169 16.6447 13.8005 17.9837 15.4997 17.9837C17.1995 17.9837 18.5824 16.6447 18.5824 14.9997C18.5824 13.3553 17.1995 12.017 15.4997 12.017ZM15.4997 12.017C13.8005 12.017 12.4169 13.3553 12.4169 14.9997C12.4169 16.6447 13.8005 17.9837 15.4997 17.9837C17.1995 17.9837 18.5824 16.6447 18.5824 14.9997C18.5824 13.3553 17.1995 12.017 15.4997 12.017ZM20.6354 7.15292H10.3646C8.72528 7.15292 7.39135 8.44382 7.39135 10.0303V19.9697C7.39135 21.5562 8.72528 22.8471 10.3646 22.8471H20.6354C22.2747 22.8471 23.6086 21.5562 23.6086 19.9697V10.0303C23.6086 8.44382 22.2747 7.15292 20.6354 7.15292ZM15.4997 20.1665C12.5563 20.1665 10.1612 17.8487 10.1612 14.9997C10.1612 12.1513 12.5563 9.83345 15.4997 9.83345C18.4437 9.83345 20.8388 12.1513 20.8388 14.9997C20.8388 17.8487 18.4437 20.1665 15.4997 20.1665ZM21.0102 10.9018C20.3136 10.9018 19.747 10.3535 19.747 9.67941C19.747 9.00533 20.3136 8.45698 21.0102 8.45698C21.7067 8.45698 22.2734 9.00533 22.2734 9.67941C22.2734 10.3535 21.7067 10.9018 21.0102 10.9018ZM15.4997 12.017C13.8005 12.017 12.4169 13.3553 12.4169 14.9997C12.4169 16.6447 13.8005 17.9837 15.4997 17.9837C17.1995 17.9837 18.5824 16.6447 18.5824 14.9997C18.5824 13.3553 17.1995 12.017 15.4997 12.017Z" fill="#3D3D3D"/>
</g>
<defs>
<clipPath id="clip0_19_417">
<rect width="30" height="30" fill="white"/>
</clipPath>
</defs>
</svg>
