<svg width="29" height="28" viewBox="0 0 29 28" fill="none" xmlns="http://www.w3.org/2000/svg">
<g clip-path="url(#clip0_19_457)">
<path d="M19.4886 0H8.98862C4.15687 0 0.238617 3.91825 0.238617 8.75V19.25C0.238617 24.0817 4.15687 28 8.98862 28H19.4886C24.3204 28 28.2386 24.0817 28.2386 19.25V8.75C28.2386 3.91825 24.3204 0 19.4886 0ZM25.6136 19.25C25.6136 22.6275 22.8661 25.375 19.4886 25.375H8.98862C5.61112 25.375 2.86362 22.6275 2.86362 19.25V8.75C2.86362 5.3725 5.61112 2.625 8.98862 2.625H19.4886C22.8661 2.625 25.6136 5.3725 25.6136 8.75V19.25Z" fill="black"/>
<path d="M14.2386 7C10.3729 7 7.23862 10.1342 7.23862 14C7.23862 17.8658 10.3729 21 14.2386 21C18.1044 21 21.2386 17.8658 21.2386 14C21.2386 10.1342 18.1044 7 14.2386 7ZM14.2386 18.375C11.8271 18.375 9.86362 16.4115 9.86362 14C9.86362 11.5868 11.8271 9.625 14.2386 9.625C16.6501 9.625 18.6136 11.5868 18.6136 14C18.6136 16.4115 16.6501 18.375 14.2386 18.375Z" fill="black"/>
<path d="M21.7637 7.40749C22.2788 7.40749 22.6964 6.98988 22.6964 6.47474C22.6964 5.9596 22.2788 5.54199 21.7637 5.54199C21.2485 5.54199 20.8309 5.9596 20.8309 6.47474C20.8309 6.98988 21.2485 7.40749 21.7637 7.40749Z" fill="black"/>
</g>
<defs>
<clipPath id="clip0_19_457">
<rect width="28" height="28" fill="white" transform="translate(0.238617)"/>
</clipPath>
</defs>
</svg>
