<svg width="30" height="28" viewBox="0 0 30 28" fill="none" xmlns="http://www.w3.org/2000/svg">
<g clip-path="url(#clip0_19_449)">
<path d="M28.9801 20.2619C28.9022 20.1359 28.42 19.1243 26.0999 17.0452C23.6709 14.868 23.9972 15.2215 26.9228 11.457C28.7046 9.16434 29.417 7.76424 29.194 7.16569C28.982 6.59515 27.6714 6.74566 27.6714 6.74566L23.3139 6.77016C23.3139 6.77016 22.9912 6.72816 22.7501 6.86642C22.5163 7.00293 22.3658 7.31795 22.3658 7.31795C22.3658 7.31795 21.6752 9.09258 20.7544 10.6012C18.8131 13.7847 18.0355 13.9527 17.7183 13.7549C16.9805 13.2946 17.1654 11.9033 17.1654 10.9162C17.1654 7.83074 17.6494 6.54439 16.221 6.21187C15.7461 6.10161 15.3981 6.02811 14.1854 6.01586C12.6302 6.0001 11.3124 6.02111 10.5674 6.37288C10.0707 6.6074 9.68828 7.13069 9.92211 7.16044C10.2103 7.19719 10.8629 7.3302 11.2091 7.78524C11.6568 8.37153 11.6405 9.69113 11.6405 9.69113C11.6405 9.69113 11.8979 13.3226 11.0405 13.7742C10.4514 14.084 9.64478 13.4522 7.91371 10.5627C7.02734 9.08383 6.35666 7.44746 6.35666 7.44746C6.35666 7.44746 6.22796 7.14294 5.99776 6.98018C5.71861 6.78241 5.32709 6.71941 5.32709 6.71941L1.1834 6.74391C1.1834 6.74391 0.56167 6.76141 0.333279 7.02218C0.130264 7.25495 0.316965 7.73448 0.316965 7.73448C0.316965 7.73448 3.56158 15.0623 7.23398 18.7568C10.6037 22.1433 14.4283 21.921 14.4283 21.921H16.1612C16.1612 21.921 16.6851 21.865 16.9515 21.5868C17.198 21.3312 17.189 20.8517 17.189 20.8517C17.189 20.8517 17.1545 18.6063 18.2349 18.2755C19.2989 17.95 20.6656 20.4457 22.1139 21.4065C23.2087 22.1328 24.0407 21.9735 24.0407 21.9735L27.9143 21.921C27.9143 21.921 29.9408 21.8003 28.9801 20.2619Z" fill="black"/>
</g>
<defs>
<clipPath id="clip0_19_449">
<rect width="29" height="28" fill="white" transform="translate(0.238617)"/>
</clipPath>
</defs>
</svg>
