<svg width="30" height="30" viewBox="0 0 30 30" fill="none" xmlns="http://www.w3.org/2000/svg">
<g clip-path="url(#clip0_19_419)">
<path d="M0 0V30H30V0H0ZM24.0498 16.6463C24.7736 17.3929 25.5485 18.0915 26.2494 18.8584C26.7588 19.4165 27.2303 20.0219 27.6339 20.6592C28.1445 21.4652 27.8291 22.2244 26.8753 22.3596C26.2753 22.4443 23.3442 22.3603 23.1928 22.3596C22.4047 22.3561 21.714 22.0827 21.1577 21.5476C20.5391 20.9517 19.9769 20.2982 19.3828 19.6765C19.2038 19.4891 19.0128 19.3095 18.8068 19.1527C18.3209 18.7821 17.8439 18.8644 17.6169 19.4351C17.4229 19.9252 17.2553 21.2124 17.2475 21.3223C17.2067 21.8971 16.8409 22.2635 16.1969 22.2989C14.3379 22.3999 12.5365 22.1926 10.8584 21.2935C9.43603 20.5318 8.30023 19.4549 7.31636 18.199C5.75346 16.2041 4.51898 14.0113 3.39194 11.7541C3.33434 11.6387 2.19281 9.20964 2.16213 9.0949C2.06016 8.71073 2.15528 8.34374 2.47988 8.21741C2.68224 8.13862 6.44591 8.21715 6.50851 8.22051C7.10906 8.25296 7.51865 8.50633 7.77156 9.12973C8.49053 10.9052 9.40173 12.5793 10.6018 14.0821C10.761 14.2821 10.9617 14.4598 11.173 14.6046C11.4818 14.8166 11.7731 14.7421 11.8986 14.3889C12.0314 14.0183 12.1532 13.2672 12.1605 12.8781C12.1803 11.8611 12.1575 11.1947 12.1029 10.179C12.0674 9.52852 11.8362 8.95732 10.8793 8.78492C10.5838 8.73147 10.5564 8.48823 10.7462 8.24559C11.1414 7.74042 11.692 7.65991 12.2891 7.62805C13.2568 7.57579 14.228 7.61844 15.1969 7.62805C15.5915 7.63167 15.9885 7.66347 16.3772 7.74819C16.8841 7.85872 17.1556 8.21432 17.2391 8.70922C17.2824 8.9645 17.3046 9.22696 17.2986 9.48527C17.2733 10.5953 17.2199 11.7047 17.2073 12.8141C17.2019 13.2495 17.2337 13.6958 17.3268 14.1199C17.4571 14.711 17.8595 14.8593 18.271 14.4323C18.7936 13.8898 19.2543 13.2796 19.6867 12.6598C20.4724 11.5323 21.0592 10.295 21.5644 9.01927C21.8256 8.36098 22.0257 8.21801 22.7338 8.21623C24.0649 8.2132 25.3959 8.21202 26.727 8.21623C26.963 8.21741 27.2099 8.23966 27.4327 8.3105C27.7943 8.42583 27.9379 8.72074 27.8531 9.09497C27.6555 9.97194 27.1816 10.7173 26.6741 11.4339C25.8596 12.5835 25.0061 13.7056 24.1724 14.842C24.0661 14.9867 23.9724 15.1411 23.8853 15.2979C23.5736 15.8612 23.5952 16.1771 24.0498 16.6463Z" fill="#3D3D3D"/>
</g>
<defs>
<clipPath id="clip0_19_419">
<rect width="30" height="30" fill="white"/>
</clipPath>
</defs>
</svg>
